<?xml version="1.0" standalone="no"?><!DOCTYPE svg PUBLIC "-//W3C//DTD SVG 1.1//EN" "http://www.w3.org/Graphics/SVG/1.1/DTD/svg11.dtd"><svg t="1752215510724" class="icon" viewBox="0 0 1067 1024" version="1.1" xmlns="http://www.w3.org/2000/svg" p-id="1163" xmlns:xlink="http://www.w3.org/1999/xlink" width="208.3984375" height="200"><path d="M899.31776 1000.349696c-19.820544-1.294336-35.057664-17.219584-34.013184-35.745792a15801.83552 15801.83552 0 0 1 39.886848-178.823168c1.974272-30.875648-5.828608-55.296-23.47008-72.441856-30.019584-29.065216-36.929536-15.900672-37.380096-15.917056a34.951168 34.951168 0 0 1-0.925696-0.036864c-46.280704-2.318336-78.839808 11.669504-98.975744 42.00448-15.618048 23.515136-18.37056 48.758784-18.685952 51.97824-4.739072 128.274432-110.186496 161.62816-165.400576 163.172352l-0.59392 0.004096c-120.32 1.069056-158.932992-81.73568-162.615296-127.123456a52.752384 52.752384 0 0 1-0.065536-1.16736l-1.536-40.525824c-0.729088-18.530304 15.622144-34.217984 36.519936-34.852864 20.901888-0.63488 38.166528 14.0288 38.567936 32.567296l0.909312 39.723008c1.081344 11.599872 10.346496 64.647168 87.40864 64.2048 15.233024-0.782336 90.374144-7.548928 91.824128-98.336768 0.004096-0.311296 0.008192-0.630784 0.02048-0.946176 2.179072-56.188928 46.051328-164.544512 195.670016-157.810688 9.146368 0.393216 40.93952-10.637312 91.2384 37.986304 32.489472 31.535104 46.505984 73.023488 42.561536 122.855424a15829.086208 15829.086208 0 0 0-42.569728 178.208768c-1.363968 18.505728-18.550784 32.313344-38.375424 31.023104z" fill="#8F8595" p-id="1164"></path><path d="M603.271168 45.965312c-126.128128-0.385024-252.268544 3.3792-378.216448 11.280384-16.252928 1.019904-28.626944 13.545472-27.639808 27.87328l18.714624 275.611648c0.987136 14.331904 14.188544 25.096192 29.4912 24.141824a5430.407168 5430.407168 0 0 1 356.651008-10.641408c15.327232 0.045056 27.848704-11.48928 27.983872-25.853952l2.2528-276.23424c0.131072-14.368768-12.955648-26.13248-29.237248-26.177536z" fill="#DAD6DC" p-id="1165"></path><path d="M689.115136 331.845632c0.282624-14.35648-12.0832-26.251264-27.631616-26.464256-159.780864-2.199552-319.635456 2.564096-479.100928 14.29504-15.519744 1.138688-27.164672 13.750272-26.025984 28.069888l25.686016 326.393856a25.92768 25.92768 0 0 0 10.043392 18.501632c20.922368 37.113856 78.835712 88.190976 243.687424 82.550784 237.236224-4.841472 246.951936-102.948864 247.164928-115.994624l6.176768-327.35232zM348.602368 230.965248c-23.83872 1.015808-47.67744 2.183168-71.507968 3.50208l-4.145152-74.756096c24.150016-1.339392 48.308224-2.523136 72.470528-3.551232 1.060864 24.936448 2.125824 49.8688 3.182592 74.805248zM547.9424 221.069312c-25.440256 0.172032-50.876416 0.516096-76.316672 1.036288l-1.511424-73.97376c25.772032-0.528384 51.54816-0.876544 77.328384-1.052672l0.499712 73.990144z" fill="#8F8595" p-id="1166"></path></svg>