<?xml version="1.0" standalone="no"?><!DOCTYPE svg PUBLIC "-//W3C//DTD SVG 1.1//EN" "http://www.w3.org/Graphics/SVG/1.1/DTD/svg11.dtd"><svg t="1752217280242" class="icon" viewBox="0 0 1024 1024" version="1.1" xmlns="http://www.w3.org/2000/svg" p-id="27194" xmlns:xlink="http://www.w3.org/1999/xlink" width="200" height="200"><path d="M280.312 36h60v144.064h-60zM485.6 36h60v144.064h-60zM676.484 36h60v144.064h-60zM283.916 813.936h60V958h-60zM489.204 813.936h60V958h-60zM680.084 813.936h60V958h-60z" fill="#CFCFCF" p-id="27195"></path><path d="M828.936 258.108h144.064v60h-144.064zM828.936 463.4h144.064v60h-144.064zM828.936 654.28h144.064v60h-144.064z" fill="#CFCFCF" p-id="27196"></path><path d="M51 258.108h144.064v60H51zM51 463.4h144.064v60H51zM51 654.28h144.064v60H51z" fill="#CFCFCF" p-id="27197"></path><path d="M728.092 133.26a2004.64 2004.64 0 0 0-439.392 0c-65.368 7.864-128.976 71.472-136.84 136.84a2004.64 2004.64 0 0 0 0 439.392c7.864 65.368 71.472 128.976 136.84 136.84a2004.64 2004.64 0 0 0 439.392 0c65.368-7.864 128.976-71.472 136.84-136.84a2004.64 2004.64 0 0 0 0-439.392c-7.86-65.364-71.472-128.976-136.84-136.84z" fill="#6BC7B5" p-id="27198"></path><path d="M391.348 365.544c81.636-13.88 163.268-13.88 244.908 0 13.88 81.636 13.88 163.268 0 244.908-81.636 13.88-163.272 13.88-244.908 0-13.88-81.64-13.88-163.276 0-244.908z" fill="#4BB39E" p-id="27199"></path></svg>