<?xml version="1.0" standalone="no"?><!DOCTYPE svg PUBLIC "-//W3C//DTD SVG 1.1//EN" "http://www.w3.org/Graphics/SVG/1.1/DTD/svg11.dtd"><svg t="1752215709897" class="icon" viewBox="0 0 1077 1024" version="1.1" xmlns="http://www.w3.org/2000/svg" p-id="1982" xmlns:xlink="http://www.w3.org/1999/xlink" width="210.3515625" height="200"><path d="M1024.012935 107.799005h-161.685572V0h-107.799005v107.799005H323.371144V0h-107.799004v107.799005h-161.685573A53.886567 53.886567 0 0 0 0 161.685572V970.113433a53.886567 53.886567 0 0 0 53.899502 53.886567h970.113433A53.886567 53.886567 0 0 0 1077.899502 970.113433V161.685572a53.886567 53.886567 0 0 0-53.886567-53.886567z" fill="#F2F2F2" p-id="1983"></path><path d="M717.340677 484.616932L487.216836 721.208195l-122.881035-126.114746a53.925372 53.925372 0 1 0-77.078746 75.448956l161.685572 165.97994a53.886567 53.886567 0 0 0 77.078746 0L795.493015 560.60915a53.938307 53.938307 0 0 0-77.078746-75.448955l-1.073592-0.543263z" fill="#00CCC6" p-id="1984"></path><path d="M0 157.016093v159.654801h1077.899502V157.016093a53.886567 53.886567 0 0 0-53.886567-53.886568h-970.113433A53.886567 53.886567 0 0 0 0 157.016093z" fill="#FF7D7D" p-id="1985"></path><path d="M202.650229 0h119.686128v119.686128h-119.686128zM754.528358 0h118.263295v119.686128h-118.263295z" fill="#FF7D7D" p-id="1986"></path></svg>