<?xml version="1.0" standalone="no"?><!DOCTYPE svg PUBLIC "-//W3C//DTD SVG 1.1//EN" "http://www.w3.org/Graphics/SVG/1.1/DTD/svg11.dtd"><svg t="1752214988730" class="icon" viewBox="0 0 1024 1024" version="1.1" xmlns="http://www.w3.org/2000/svg" p-id="1730" xmlns:xlink="http://www.w3.org/1999/xlink" width="200" height="200"><path d="M861.716 169.432l-49.576-49.576a20 20 0 0 0-28.28 28.284l48.64 48.644c-17.868 5.64-32.856 19.528-38.98 38.696-10.008 31.332 7.34 64.968 38.672 74.98 6.016 1.92 12.108 2.832 18.112 2.832 6.784 0 13.424-1.204 19.696-3.4V754c0 21.684-12.824 40-28 40s-28-18.316-28-40v-116c0-44.108-35.888-80-80-80h-109.332c-11.048 0-20 8.952-20 20s8.952 20 20 20H734c22.06 0 40 17.944 40 40v116c0 44.108 30.504 80 68 80s68-35.892 68-80v-468c0-38.288-21.208-89.492-48.284-116.568z m-17.352 102.928c-10.324-3.3-16.04-14.38-12.744-24.7s14.364-16.048 24.704-12.744l0.416-1.304c4.456 9.84 8.068 20.236 10.384 30.168-4.604 7.596-13.94 11.396-22.76 8.58z" fill="#CCCCCC" p-id="1731"></path><path d="M64.672 851.584h653.384v4.356H64.672z" fill="#3D4D69" p-id="1732"></path><path d="M64.672 855.94h653.384v5.9H64.672z" fill="#3D4D69" p-id="1733"></path><path d="M64.672 861.84h653.384v5.892H64.672z" fill="#3D4D69" p-id="1734"></path><path d="M64.672 867.732h653.384v5.892H64.672z" fill="#3D4D69" p-id="1735"></path><path d="M64.672 873.62h653.384v5.908H64.672z" fill="#3D4D69" p-id="1736"></path><path d="M64.672 879.52h653.384v5.904H64.672z" fill="#3D4D69" p-id="1737"></path><path d="M64.672 885.42h653.384v5.884H64.672z" fill="#3D4D69" p-id="1738"></path><path d="M64.672 891.304h653.384v5.908H64.672z" fill="#3D4D69" p-id="1739"></path><path d="M64.672 897.212h653.384v5.9H64.672z" fill="#3D4D69" p-id="1740"></path><path d="M64.672 903.108h653.384v5.892H64.672z" fill="#3D4D69" p-id="1741"></path><path d="M64.672 909h653.384v61H64.672z" fill="#3D4D69" p-id="1742"></path><path d="M675.336 841.936c0 39.468-33.924 71.768-75.392 71.768H185.292c-41.464 0-75.392-32.3-75.392-71.768V145.768c0-39.472 33.924-71.768 75.392-71.768h414.652c41.464 0 75.392 32.296 75.392 71.768v696.168z" fill="#3D4D69" p-id="1743"></path><path d="M577.328 407.732c0 9.868-8.484 17.94-18.848 17.94H226.756c-10.364 0-18.848-8.076-18.848-17.94V181.656c0-9.868 8.484-17.944 18.848-17.944h331.724c10.364 0 18.848 8.076 18.848 17.944v226.076z" fill="#67B592" p-id="1744"></path><path d="M380.604 529.74l-75.512 135.036h75.512l-58.348 128.716 156.168-162.472h-54.916l56.636-101.28z" fill="#FFDD17" p-id="1745"></path></svg>