<?xml version="1.0" standalone="no"?><!DOCTYPE svg PUBLIC "-//W3C//DTD SVG 1.1//EN" "http://www.w3.org/Graphics/SVG/1.1/DTD/svg11.dtd"><svg t="1752215030498" class="icon" viewBox="0 0 1024 1024" version="1.1" xmlns="http://www.w3.org/2000/svg" p-id="1847" xmlns:xlink="http://www.w3.org/1999/xlink" width="200" height="200"><path d="M512 85.333333c44.16 0 83.854222 19.171556 111.189333 49.649778A149.12 149.12 0 0 1 668.444444 128c71.893333 0 131.911111 50.801778 146.133334 118.471111a113.792 113.792 0 0 1 28.928 204.970667 113.806222 113.806222 0 0 1-84.465778 158.464l-12.472889 144.341333a170.709333 170.709333 0 0 1-136.448 152.661333A42.638222 42.638222 0 0 1 568.888889 938.666667h-113.777778a42.680889 42.680889 0 0 1-41.244444-31.744 170.752 170.752 0 0 1-136.433778-152.675556l-12.458667-144.355555a113.806222 113.806222 0 0 1-84.48-158.449778 113.792 113.792 0 0 1 28.913778-204.984889C223.644444 178.801778 283.676444 128 355.555556 128c15.786667 0 30.976 2.446222 45.255111 6.968889A148.949333 148.949333 0 0 1 512 85.333333z" fill="#E4E6EB" p-id="1848"></path><path d="M483.555556 71.111111a148.906667 148.906667 0 0 1 108.330666 46.549333 149.248 149.248 0 0 1 161.649778 68.081778 113.777778 113.777778 0 0 1 47.303111 208.810667 113.806222 113.806222 0 0 1-84.465778 158.464l-12.472889 144.341333a170.709333 170.709333 0 0 1-136.448 152.661334A42.638222 42.638222 0 0 1 526.222222 881.777778H355.555556v-28.444445h-42.666667l-60.814222-243.214222a113.806222 113.806222 0 0 1-85.802667-158.677333 113.792 113.792 0 0 1 28.913778-204.984889C209.422222 178.801778 269.454222 128 341.333333 128c7.992889 0 15.843556 0.625778 23.509334 1.848889A149.077333 149.077333 0 0 1 483.555556 71.111111z" fill="#FFFFFF" p-id="1849"></path><path d="M512 113.777778c65.408 0 120.988444 42.040889 141.198222 100.579555a113.777778 113.777778 0 0 1 76.529778 208.64 113.777778 113.777778 0 1 1-202.026667-11.377777 148.565333 148.565333 0 0 1-31.416889 0 113.777778 113.777778 0 1 1-202.012444 11.363555 113.777778 113.777778 0 0 1 76.544-208.64C391.011556 155.818667 446.592 113.777778 512 113.777778z" fill="#A9DF69" p-id="1850"></path><path d="M668.444444 128c71.893333 0 131.911111 50.801778 146.133334 118.471111a113.792 113.792 0 0 1 28.928 204.970667 113.777778 113.777778 0 1 1-192-25.728C577.009778 417.308444 519.111111 354.076444 519.111111 277.333333 519.111111 194.858667 585.969778 128 668.444444 128zM355.555556 128c-71.893333 0-131.911111 50.801778-146.133334 118.471111a113.792 113.792 0 0 0-28.928 204.970667 113.777778 113.777778 0 1 0 192-25.728c74.496-8.405333 132.394667-71.637333 132.394667-148.380445C504.888889 194.858667 438.030222 128 355.555556 128z" fill="#7CC229" p-id="1851"></path><path d="M489.841778 382.691556a148.864 148.864 0 0 1-88.903111 43.022222 113.777778 113.777778 0 1 1-192 25.728 113.792 113.792 0 0 1 28.913777-204.984889C252.088889 178.801778 312.120889 128 384 128c7.438222 0 14.748444 0.540444 21.902222 1.592889A148.849778 148.849778 0 0 1 512 85.333333c59.662222 0 111.146667 34.986667 135.068444 85.560889a113.777778 113.777778 0 0 1 68.437334 209.422222c6.314667 14.165333 9.827556 29.838222 9.827555 46.350223a113.777778 113.777778 0 1 1-219.221333-42.808889 150.044444 150.044444 0 0 1-15.985778-1.464889z" fill="#A9DF69" p-id="1852"></path><path d="M512 56.888889l-5.105778 0.071111a177.208889 177.208889 0 0 0-113.137778 44.942222l-1.578666 1.436445-0.298667-0.071111A178.432 178.432 0 0 0 355.555556 99.555556l-4.437334 0.056888a177.877333 177.877333 0 0 0-165.12 124.145778l-0.341333 1.080889-3.171556 1.422222A142.264889 142.264889 0 0 0 99.555556 355.555556l0.071111 4.579555a141.966222 141.966222 0 0 0 44.430222 98.759111l2.844444 2.631111-0.967111 3.854223C143.473778 475.904 142.222222 486.755556 142.222222 497.777778l0.056889 3.996444a142.321778 142.321778 0 0 0 95.160889 130.275556l0.910222 0.298666 10.752 124.344889 0.455111 4.636445a199.253333 199.253333 0 0 0 140.885334 169.045333l2.872889 0.824889 0.213333 0.384A71.125333 71.125333 0 0 0 455.111111 967.111111h113.777778l3.228444-0.071111a71.096889 71.096889 0 0 0 56.675556-32.711111l1.877333-3.157333 2.858667-0.796445a199.196444 199.196444 0 0 0 141.368889-173.681778l10.737778-124.344889 0.938666-0.298666A142.307556 142.307556 0 0 0 881.777778 497.777778l-0.099556-5.489778a142.350222 142.350222 0 0 0-3.612444-26.908444l-0.981334-3.854223 2.858667-2.631111A141.980444 141.980444 0 0 0 924.444444 355.555556l-0.056888-4.124445a142.264889 142.264889 0 0 0-82.872889-125.184l-3.185778-1.408-0.327111-1.080889A177.877333 177.877333 0 0 0 668.444444 99.555556l-6.144 0.099555c-8.163556 0.284444-16.256 1.109333-24.234666 2.488889l-6.257778 1.194667-1.564444-1.436445A177.251556 177.251556 0 0 0 512 56.888889z m0 56.888889a120.490667 120.490667 0 0 1 90.026667 40.206222l12.273777 13.681778 17.507556-5.575111a120.931556 120.931556 0 0 1 154.936889 90.225777l3.498667 16.597334 16.270222 4.821333a85.347556 85.347556 0 0 1 21.646222 153.742222l-20.608 13.212445 9.969778 22.328889a85.361778 85.361778 0 0 1-63.331556 118.826666l-21.603555 3.754667L718.222222 751.786667a142.264889 142.264889 0 0 1-113.678222 127.232l-17.422222 3.484444-4.508445 17.180445A14.193778 14.193778 0 0 1 568.888889 910.222222h-113.777778c-6.499556 0-12.131556-4.408889-13.752889-10.567111l-4.522666-17.137778-17.393778-3.484444A142.307556 142.307556 0 0 1 305.777778 751.786667L291.413333 585.6l-21.617777-3.740444a85.361778 85.361778 0 0 1-63.331556-118.826667l9.955556-22.343111-20.593778-13.212445a85.347556 85.347556 0 0 1 21.646222-153.742222l16.270222-4.821333 3.498667-16.597334a120.931556 120.931556 0 0 1 154.936889-90.225777l17.521778 5.560889 12.273777-13.681778A120.476444 120.476444 0 0 1 512 113.777778z" fill="#191919" p-id="1853"></path><path d="M512 160a14.222222 14.222222 0 0 1 14.222222 14.222222l-0.014222 140.8c3.256889 9.728 6.698667 20.622222 10.339556 32.696889 33.891556-37.262222 79.217778-62.990222 135.552-77.084444a14.222222 14.222222 0 0 1 6.912 27.605333c-57.841778 14.464-101.973333 41.884444-132.906667 82.375111 5.361778 19.057778 11.064889 40.234667 17.109333 63.573333C585.998222 432.526222 611.655111 426.666667 640 426.666667a14.222222 14.222222 0 0 1 0 28.444444c-26.282667 0-49.379556 5.816889-69.518222 17.493333A7038.407111 7038.407111 0 0 1 597.333333 583.111111H426.666667c9.543111-40.576 18.488889-77.411556 26.837333-110.478222C433.379556 460.928 410.282667 455.111111 384 455.111111a14.222222 14.222222 0 0 1 0-28.444444c28.344889 0 54.001778 5.859556 76.8 17.521777 6.030222-23.324444 11.733333-44.515556 17.095111-63.559111-30.933333-40.504889-75.050667-67.925333-132.906667-82.389333a14.222222 14.222222 0 0 1 6.912-27.591111c56.334222 14.08 101.660444 39.793778 135.552 77.056 3.640889-12.046222 7.082667-22.940444 10.339556-32.668445L497.777778 174.222222a14.222222 14.222222 0 0 1 14.222222-14.222222z" fill="#FFFFFF" p-id="1854"></path><path d="M270.222222 284.444444a14.222222 14.222222 0 0 1 14.222222 14.222223c0 36.337778 14.72 56.576 46.122667 64.426666a14.222222 14.222222 0 0 1 8.078222 22.115556c-46.762667 64.753778-16.554667 152.263111 76.416 169.699555A14.222222 14.222222 0 0 1 426.666667 568.888889l-0.341334 53.688889v8.789333c0.014222 14.734222 0.227556 26.311111 0.711111 38.442667l0.213334 5.233778c3.057778 68.067556 14.620444 114.816 38.257778 140.145777a14.222222 14.222222 0 0 1-20.792889 19.399111c-29.653333-31.772444-42.524444-83.868444-45.880889-158.264888l-0.426667-10.709334c-0.284444-8.832-0.455111-17.635556-0.512-27.733333v-19.953778l0.284445-37.632-0.881778-0.213333c-96.312889-24.874667-132.408889-117.347556-93.269334-192.810667l1.493334-2.801778-2.844445-1.308444c-29.681778-14.506667-45.568-41.912889-46.620444-80.341333L256 298.666667a14.222222 14.222222 0 0 1 14.222222-14.222223zM753.777778 284.444444a14.222222 14.222222 0 0 0-14.222222 14.222223c0 36.337778-14.72 56.576-46.122667 64.426666a14.222222 14.222222 0 0 0-8.078222 22.115556c46.762667 64.753778 16.554667 152.263111-76.416 169.699555A14.222222 14.222222 0 0 0 597.333333 568.888889l0.341334 53.688889v8.789333a984.576 984.576 0 0 1-0.711111 38.442667l-0.213334 5.233778c-3.057778 68.067556-14.620444 114.816-38.257778 140.145777a14.222222 14.222222 0 0 0 20.792889 19.399111c29.653333-31.772444 42.524444-83.868444 45.880889-158.264888l0.426667-10.709334c0.284444-8.832 0.455111-17.635556 0.512-27.733333v-19.953778l-0.284445-37.632 0.881778-0.213333c96.312889-24.874667 132.408889-117.347556 93.269334-192.810667l-1.493334-2.801778 2.844445-1.308444c29.681778-14.506667 45.568-41.912889 46.620444-80.341333L768 298.666667a14.222222 14.222222 0 0 0-14.222222-14.222223z" fill="#191919" p-id="1855"></path></svg>