<?xml version="1.0" standalone="no"?><!DOCTYPE svg PUBLIC "-//W3C//DTD SVG 1.1//EN" "http://www.w3.org/Graphics/SVG/1.1/DTD/svg11.dtd"><svg t="1752215035152" class="icon" viewBox="0 0 1024 1024" version="1.1" xmlns="http://www.w3.org/2000/svg" p-id="2195" xmlns:xlink="http://www.w3.org/1999/xlink" width="200" height="200"><path d="M536.888889 99.555556l23.182222 101.603555c1.934222 8.547556 4.337778 16.952889 7.168 25.173333L583.111111 99.555556l71.111111 28.444444c2.375111 109.041778 26.069333 182.513778 71.111111 220.444444l0.711111 0.597334C831.758222 377.912889 910.222222 484.494222 910.222222 611.555556c0 149.233778-108.245333 270.222222-241.777778 270.222222-16.64 0-32.896-1.877333-48.597333-5.461334C587.761778 897.934222 551.011556 910.222222 512 910.222222c-39.025778 0-75.761778-12.273778-107.847111-33.92A217.557333 217.557333 0 0 1 355.555556 881.777778c-133.532444 0-241.777778-120.988444-241.777778-270.222222 0-118.727111 68.508444-219.576889 163.754666-255.843556L277.333333 355.555556a219.121778 219.121778 0 0 0 130.133334-185.144889L412.444444 99.555556h124.444445z" fill="#CFB1B7" p-id="2196"></path><path d="M519.111111 128l46.222222 135.111111 60.444445-71.111111 56.448 179.328C794.680889 383.829333 881.777778 470.698667 881.777778 576 881.777778 689.891556 779.904 782.222222 654.222222 782.222222c-18.062222 0-35.640889-1.905778-52.494222-5.518222A212.394667 212.394667 0 0 1 512 796.444444c-32.056889 0-62.464-7.068444-89.742222-19.740444A250.453333 250.453333 0 0 1 369.777778 782.222222c-125.681778 0-227.555556-92.330667-227.555556-206.222222 0-92.444444 67.128889-170.709333 159.644445-196.878222a219.107556 219.107556 0 0 0 119.822222-180.266667L426.666667 128h92.444444z" fill="#FCEEED" p-id="2197"></path><path d="M583.111111 796.444444h115.726222c23.793778-119.352889 8.931556-214.172444-44.615111-284.444444 16.725333 142.222222-6.968889 237.041778-71.111111 284.444444z" fill="#CFB1B7" p-id="2198"></path><path d="M536.888889 99.555556l23.182222 101.603555c1.934222 8.547556 4.337778 16.952889 7.168 25.173333L583.111111 99.555556l71.111111 28.444444c2.318222 106.609778 25.031111 179.228444 68.138667 217.870222l3.683555 3.171556C831.758222 377.912889 910.222222 484.494222 910.222222 611.555556c0 149.233778-108.245333 270.222222-241.777778 270.222222-16.64 0-32.896-1.877333-48.597333-5.461334C587.761778 897.934222 551.011556 910.222222 512 910.222222c-39.025778 0-75.761778-12.273778-107.847111-33.92A217.557333 217.557333 0 0 1 355.555556 881.777778c-133.532444 0-241.777778-120.988444-241.777778-270.222222 0-118.727111 68.508444-219.576889 163.754666-255.843556L277.333333 355.555556a219.121778 219.121778 0 0 0 130.133334-185.144889L412.444444 99.555556h124.444445z m-45.383111 56.888888h-26.026667l-1.251555 17.948445a276.010667 276.010667 0 0 1-154.026667 228.593778l-4.366222 2.076444-0.341334 0.227556a58.453333 58.453333 0 0 1-5.048889 2.503111l-2.659555 1.080889C223.288889 437.248 170.666667 518.044444 170.666667 611.555556c0 119.139556 84.280889 213.333333 184.888889 213.333333 12.202667 0 24.192-1.365333 35.896888-4.039111a56.888889 56.888889 0 0 1 44.487112 8.277333C459.619556 845.084444 485.418667 853.333333 512 853.333333c26.581333 0 52.394667-8.248889 76.074667-24.192a56.888889 56.888889 0 0 1 41.130666-8.931555l3.299556 0.64c11.733333 2.673778 23.751111 4.039111 35.939555 4.039111 100.608 0 184.888889-94.193778 184.888889-213.333333 0-100.323556-60.472889-185.287111-142.279111-207.644445a56.888889 56.888889 0 0 1-19.029333-9.272889l-3.342222-2.673778c-35.612444-30.008889-60.117333-73.159111-74.752-129.052444l-0.654223-2.56-0.469333 0.668444c-24.433778 32.440889-80.938667 30.449778-98.318222-13.368888l-1.024-2.787556a300.046222 300.046222 0 0 1-8.874667-31.061333L491.52 156.444444z" fill="#191919" p-id="2199"></path><path d="M363.008 555.207111a14.222222 14.222222 0 0 1 9.784889 17.578667C370.602667 580.465778 369.777778 587.306667 369.777778 597.333333a14.222222 14.222222 0 0 1-28.444445 0c0-12.515556 1.137778-21.902222 4.096-32.341333a14.222222 14.222222 0 0 1 17.578667-9.784889zM668.444444 640a14.222222 14.222222 0 0 1 14.222223 14.222222c0 101.845333-76.117333 184.888889-170.666667 184.888889s-170.666667-83.043556-170.666667-184.888889a14.222222 14.222222 0 0 1 28.444445 0c0 86.670222 63.971556 156.444444 142.222222 156.444445s135.111111-64 149.333333-156.444445c1.208889-7.822222-0.739556-14.222222 7.111111-14.222222z" fill="#CFB1B7" p-id="2200"></path></svg>