<?xml version="1.0" standalone="no"?><!DOCTYPE svg PUBLIC "-//W3C//DTD SVG 1.1//EN" "http://www.w3.org/Graphics/SVG/1.1/DTD/svg11.dtd"><svg t="1752215006114" class="icon" viewBox="0 0 1024 1024" version="1.1" xmlns="http://www.w3.org/2000/svg" p-id="2274" xmlns:xlink="http://www.w3.org/1999/xlink" width="200" height="200"><path d="M973.992 360.604c0-154.216-203.3-303.084-468.864-303.084-303.976 0-468.872 148.864-468.872 303.084v3.3c0 3.604 0.612 6.556 0.164 6.556-0.456-0.004-0.164 26.816-0.164 59.6v476.812c0 32.78 25.82 59.6 58.6 59.6h818.528c32.784 0 60.604-26.82 60.604-59.6V430.064c0-32.784-0.08-59.604-0.164-59.604s0.164-2.952 0.164-6.556l0.004-3.3z" fill="#FFC205" p-id="2275"></path><path d="M139.568 438.008H870.68V866H139.568z" fill="#B16F01" p-id="2276"></path><path d="M407.604 326.752L346.184 368.844V326.752z" fill="#BF5D1F" p-id="2277"></path><path d="M418.668 326.752L346.184 377.04v-8.196l61.42-42.092z" fill="#BF5D1F" p-id="2278"></path><path d="M429.752 326.752L346.184 385.252V377.04l72.484-50.288z" fill="#C05E1F" p-id="2279"></path><path d="M440.816 326.752L346.184 393.46v-8.208l83.568-58.5z" fill="#C05F1E" p-id="2280"></path><path d="M451.888 326.752l-105.704 74.92v-8.212l94.632-66.708z" fill="#C1601E" p-id="2281"></path><path d="M462.956 326.752l-116.772 83.132v-8.212l105.704-74.92z" fill="#C2611E" p-id="2282"></path><path d="M474.02 326.752L346.184 418.08v-8.196l116.772-83.132z" fill="#C2621D" p-id="2283"></path><path d="M485.084 326.752l-138.9 99.536v-8.208l127.836-91.328z" fill="#C3631D" p-id="2284"></path><path d="M496.152 326.752l-149.968 107.748v-8.212l138.9-99.536z" fill="#C4641D" p-id="2285"></path><path d="M507.22 326.752l-161.036 115.96v-8.212l149.968-107.748z" fill="#C4651C" p-id="2286"></path><path d="M518.284 326.752L346.184 450.92v-8.208l161.036-115.96z" fill="#C5661C" p-id="2287"></path><path d="M529.356 326.752l-183.172 132.36v-8.192l172.1-124.168z" fill="#C6671C" p-id="2288"></path><path d="M540.416 326.752l-194.232 140.576v-8.216l183.172-132.36z" fill="#C6681B" p-id="2289"></path><path d="M551.484 326.752l-203.76 149.376-1.54-1.708v-7.092l194.232-140.576z" fill="#C7691B" p-id="2290"></path><path d="M562.552 326.752L352.644 481.44l-3.924-4.816 202.764-149.872z" fill="#C86A1B" p-id="2291"></path><path d="M573.632 326.752l-217.064 159.98-3.924-4.796 209.908-155.184z" fill="#C86B1A" p-id="2292"></path><path d="M584.688 326.752l-224.188 165.268-3.932-4.792 217.064-160.476z" fill="#C96C1A" p-id="2293"></path><path d="M595.768 326.752l-231.344 170.564-3.924-4.796 224.188-165.768z" fill="#CA6D1A" p-id="2294"></path><path d="M606.836 326.752l-238.484 175.856-3.928-4.796 231.344-171.06z" fill="#CA6E19" p-id="2295"></path><path d="M617.904 326.752l-245.628 181.148-3.924-4.796 238.484-176.352z" fill="#CB6F19" p-id="2296"></path><path d="M628.968 326.752l-252.764 186.456-3.928-4.812 245.628-181.644z" fill="#CC7019" p-id="2297"></path><path d="M640.036 326.752l-259.904 191.748-3.928-4.792 252.764-186.956z" fill="#CC7118" p-id="2298"></path><path d="M651.1 326.752l-267.044 197.04-3.924-4.792 259.904-192.248z" fill="#CD7218" p-id="2299"></path><path d="M652.14 330.724l-265.148 197.368-3.432-4.3 267.54-197.04h1.04z" fill="#CE7318" p-id="2300"></path><path d="M652.14 338.932L390.92 533.388l-4.42-5.296 265.64-197.368z" fill="#CE7417" p-id="2301"></path><path d="M652.14 347.148L394.844 538.68l-4.424-5.292 261.72-194.456z" fill="#CF7517" p-id="2302"></path><path d="M652.14 355.356l-253.372 188.632-4.42-5.308 257.792-191.532z" fill="#D07617" p-id="2303"></path><path d="M652.14 363.568l-249.44 185.708-4.428-5.288 253.868-188.632z" fill="#D07716" p-id="2304"></path><path d="M652.14 371.764l-240.052 181.476h-6.936l-2.452-2.968 249.44-186.704z" fill="#D17816" p-id="2305"></path><path d="M652.14 379.976l-228.968 173.264h-11.084l240.052-181.476z" fill="#D27A16" p-id="2306"></path><path d="M652.14 388.184l-217.92 165.056h-11.048l228.968-173.264z" fill="#D37B16" p-id="2307"></path><path d="M652.14 396.396l-206.836 156.844h-11.084l217.92-165.056z" fill="#D37C15" p-id="2308"></path><path d="M652.14 404.604l-195.772 148.636h-11.064l206.836-156.844z" fill="#D47D15" p-id="2309"></path><path d="M652.14 412.8l-184.7 140.44h-11.072l195.772-148.636z" fill="#D57E15" p-id="2310"></path><path d="M652.14 421.012l-173.636 132.228h-11.064l184.7-140.44z" fill="#D57F14" p-id="2311"></path><path d="M652.14 429.224l-162.568 124.016h-11.068l173.636-132.228z" fill="#D68014" p-id="2312"></path><path d="M652.14 437.432L500.64 553.24h-11.068l162.568-124.016z" fill="#D78114" p-id="2313"></path><path d="M652.14 445.628l-140.432 107.612h-11.068l151.5-115.808z" fill="#D78213" p-id="2314"></path><path d="M652.14 453.836l-129.368 99.404h-11.064l140.432-107.612z" fill="#D88313" p-id="2315"></path><path d="M652.14 462.052l-118.304 91.188h-11.064l129.368-99.404z" fill="#D98413" p-id="2316"></path><path d="M652.14 470.26l-107.236 82.98h-11.068l118.304-91.188z" fill="#D98512" p-id="2317"></path><path d="M652.14 478.472l-96.168 74.768h-11.068l107.236-82.98z" fill="#DA8612" p-id="2318"></path><path d="M652.14 486.668l-85.084 66.572h-11.084l96.168-74.768z" fill="#DB8712" p-id="2319"></path><path d="M652.14 494.872L578.12 553.24h-11.064l85.084-66.572z" fill="#DB8811" p-id="2320"></path><path d="M652.14 503.088l-62.952 50.152h-11.068l74.02-58.368z" fill="#DC8911" p-id="2321"></path><path d="M652.14 511.296l-51.888 41.944h-11.064l62.952-50.152z" fill="#DD8A11" p-id="2322"></path><path d="M652.14 519.508l-40.82 33.732h-11.068l51.888-41.944z" fill="#DD8B10" p-id="2323"></path><path d="M652.14 527.72l-29.752 25.52h-11.068l40.82-33.732z" fill="#DE8C10" p-id="2324"></path><path d="M652.14 535.916l-18.688 17.324h-11.064l29.752-25.52z" fill="#DF8D10" p-id="2325"></path><path d="M652.14 544.124l-7.616 9.116h-11.072l18.688-17.324z" fill="#DF8E0F" p-id="2326"></path><path d="M644.524 553.24l7.616-9.116v9.116z" fill="#E08F0F" p-id="2327"></path><path d="M602.236 573.104h-187.188a21.86 21.86 0 0 1-18.528-10.264l-66.872-106.88a21.9 21.9 0 0 1-3.328-11.592V324.764a21.852 21.852 0 0 1 21.856-21.852h305.956a21.856 21.856 0 0 1 21.856 21.852v119.604c0 3.308-0.748 6.572-2.2 9.544l-51.896 106.88a21.852 21.852 0 0 1-19.656 12.312z m-175.088-43.708h161.408l43.724-90.052V346.62H370.028v91.476l57.12 91.3z" fill="#FFC205" p-id="2328"></path><path d="M473.336 390.328h59.604v95.364h-59.604z" fill="#42210B" p-id="2329"></path><path d="M703.796 648.6h166.884v75.496h-166.884z" fill="#824D00" opacity=".5" p-id="2330"></path><path d="M139.568 596.944H302.48v63.576H139.568z" fill="#824D00" opacity=".5" p-id="2331"></path><path d="M358.108 736.016h147.02v55.628H358.108z" fill="#824D00" opacity=".5" p-id="2332"></path></svg>