<?xml version="1.0" standalone="no"?><!DOCTYPE svg PUBLIC "-//W3C//DTD SVG 1.1//EN" "http://www.w3.org/Graphics/SVG/1.1/DTD/svg11.dtd"><svg t="1752215702854" class="icon" viewBox="0 0 1027 1024" version="1.1" xmlns="http://www.w3.org/2000/svg" p-id="1810" xmlns:xlink="http://www.w3.org/1999/xlink" width="200.5859375" height="200"><path d="M391.982231 400.858172m-349.985753 0a349.985753 349.985753 0 1 0 699.971505 0 349.985753 349.985753 0 1 0-699.971505 0Z" fill="#D4E8FF" p-id="1811"></path><path d="M654.472678 710.016407l216.117165 216.08998a37.33423 37.33423 0 0 0 52.802563 0 37.329699 37.329699 0 0 0 0-52.834279l-216.094511-216.08998c-14.589347-14.593878-38.258524-14.593878-52.825217 0-14.589347 14.580285-14.589347 38.23587 0 52.834279z" fill="#9F9FC4" p-id="1812"></path><path d="M972.86026 1008.75821c-20.334469 20.320876-53.609055 20.320876-73.948054 0l-197.169137-197.191791c-20.334469-20.334469-20.334469-53.599993 0-73.934462l39.432015-39.418423c20.316346-20.343531 53.595462-20.343531 73.929931 0l197.196322 197.18273c20.329938 20.334469 20.329938 53.613585-0.031716 73.929931l-39.409361 39.432015z" fill="#F0A6A6" p-id="1813"></path><path d="M400.056211 0C179.113687 0 0 179.109156 0 400.056211c0 220.951585 179.113687 400.065273 400.056211 400.065273 220.951585 0 400.065273-179.113687 400.065273-400.065273C800.126014 179.109156 621.012327 0 400.056211 0z m-2.310735 732.163217C215.609709 732.163217 67.962797 584.511774 67.962797 402.380539c0-182.135766 147.646912-329.782678 329.782679-329.782679 182.131235 0 329.782678 147.646912 329.782678 329.782679 0 182.131235-147.651443 329.782678-329.782678 329.782678z" fill="#9F9FC4" p-id="1814"></path><path d="M175.14466 331.200835h100.630249v203.417184h-100.630249z" fill="#FFFFFF" p-id="1815"></path><path d="M341.431502 394.025645h100.630249v140.592374h-100.630249z" fill="#F0A6A6" p-id="1816"></path><path d="M507.713813 234.974576h100.63931v299.643443h-100.63931z" fill="#FFE66B" p-id="1817"></path></svg>