<?xml version="1.0" standalone="no"?><!DOCTYPE svg PUBLIC "-//W3C//DTD SVG 1.1//EN" "http://www.w3.org/Graphics/SVG/1.1/DTD/svg11.dtd"><svg t="1752215519738" class="icon" viewBox="0 0 1024 1024" version="1.1" xmlns="http://www.w3.org/2000/svg" p-id="1333" xmlns:xlink="http://www.w3.org/1999/xlink" width="200" height="200"><path d="M672.362496 53.460992a2505.310208 2505.310208 0 0 1-309.47328 0c-13.29152-0.8192-25.00608 11.317248-26.177536 27.262976l-21.086208 294.621184a2884.32128 2884.32128 0 0 0 54.4768 3.366912 2828.967936 2828.967936 0 0 0 349.519872-3.366912l-21.082112-294.621184c-1.16736-15.945728-12.886016-28.082176-26.177536-27.262976z" fill="#D9DFDF" p-id="1334"></path><path d="M550.821888 995.856384c-22.122496 0.217088-44.253184 0.217088-66.379776 0l1.642496-170.3936c21.028864 0.200704 42.06592 0.200704 63.094784 0l1.642496 170.3936z" p-id="1335"></path><path d="M796.54912 324.46464a2785.562624 2785.562624 0 0 1-557.83424 0c-14.7456-1.482752-28.135424 10.063872-29.917184 25.94816l-26.595328 240.889856c-1.06496 9.617408 2.859008 19.152896 10.52672 25.366528a2895.58528 2895.58528 0 0 0 132.476928 101.19168l-6.18496 101.720064c-0.999424 15.95392 12.443648 29.769728 30.035968 30.670848a3302.924288 3302.924288 0 0 0 362.098688-1.376256c17.588224-1.032192 30.920704-14.9504 29.802496-30.896128l-7.057408-103.112704a2885.947392 2885.947392 0 0 0 110.379008-99.745792 28.524544 28.524544 0 0 0 8.773632-23.822336l-26.591232-240.889856c-1.78176-15.884288-15.171584-27.42272-29.913088-25.944064z" fill="#8DA09F" p-id="1336"></path><path d="M570.564608 248.864768c-35.28704 0.692224-70.586368 0.692224-105.877504 0l1.138688-57.884672c34.533376 0.679936 69.070848 0.679936 103.604224 0l1.134592 57.884672z" opacity=".25" p-id="1337"></path></svg>