<?xml version="1.0" standalone="no"?><!DOCTYPE svg PUBLIC "-//W3C//DTD SVG 1.1//EN" "http://www.w3.org/Graphics/SVG/1.1/DTD/svg11.dtd"><svg t="1752215175318" class="icon" viewBox="0 0 1024 1024" version="1.1" xmlns="http://www.w3.org/2000/svg" p-id="1883" xmlns:xlink="http://www.w3.org/1999/xlink" width="200" height="200"><path d="M878.868756 582.252461a2307.245148 2307.245148 0 0 1-746.995154 0.065188c-46.026912-7.545529-77.178702-34.541574-80.902575-68.394598-3.903141-35.238273 22.555102-67.844573 63.749942-83.171939C214.295877 387.7473 307.197148 337.780579 392.793271 282.260641a2088.734449 2088.734449 0 0 0 29.933586 46.169512c-86.753213 56.954077-180.909356 108.334567-281.845066 152.715478a27.892382 27.892382 0 0 1-1.662298 0.680401c-20.065729 7.415153-28.165358 19.73164-26.987897 28.23462 1.144867 8.356307 11.823502 15.152172 28.552413 17.902298a2252.104116 2252.104116 0 0 0 729.162118-0.065188c16.435564-2.701234 27.289392-9.480802 28.316106-17.425609 1.083753-8.230005-7.134029-20.134992-27.240501-27.277169-99.888626-35.588659-194.081437-78.042446-281.950997-126.143157-27.806823-15.201063-53.52355-32.932242-72.648126-49.518553-26.531579-23.052162-36.692783-39.332904-36.513516-55.373264l0.317792-24.510746c0.195564-13.347275 9.399317-24.632974 21.76877-26.955303 1.580813-0.179267 41.023721-8.910406 40.253687-39.46328-1.04301-41.390405-37.707274-51.918292-59.231589-52.309421-15.65738-0.199639-25.500792 5.508399-32.121464 18.770115-6.046201 12.088329-6.791791 25.484495-6.791791 25.623019a1843.195111 1843.195111 0 0 1-50.6349-2.587155c2.750125-40.375914 29.041323-97.892239 90.228557-96.889971 25.875624 0.330015 50.435261 8.959297 69.893926 24.677792 23.467736 19.010496 37.898764 47.530314 39.528468 81.000358 2.513818 47.839958-30.202488 76.082727-59.394559 88.435882 7.879618 10.10009 35.698664 35.572362 82.230785 60.840921 86.610614 46.935472 179.483365 88.260689 277.994891 122.745223 42.030064 14.728449 69.282787 47.106591 65.628176 82.438572-2.69716 26.356386-25.488569 59.097138-80.711086 68.276445z" fill="#75C7A5" p-id="1884"></path><path d="M703.088894 508.219087a1110.663579 1110.663579 0 0 1-395.818409 0c-15.038093-2.717531-29.733948 6.783642-32.887425 21.666913l-78.038371 376.836433c-3.153477 14.871048 11.375333 30.544725 32.532964 34.370455a1550.459548 1550.459548 0 0 0 552.608147 0c21.165779-3.821656 35.690515-19.495333 32.532964-34.370455l-78.034297-376.836433c-3.157551-14.883271-17.85748-24.384445-32.895573-21.666913z" fill="#BAE0DF" p-id="1885"></path></svg>