<?xml version="1.0" standalone="no"?><!DOCTYPE svg PUBLIC "-//W3C//DTD SVG 1.1//EN" "http://www.w3.org/Graphics/SVG/1.1/DTD/svg11.dtd"><svg t="1752214991217" class="icon" viewBox="0 0 1024 1024" version="1.1" xmlns="http://www.w3.org/2000/svg" p-id="1914" xmlns:xlink="http://www.w3.org/1999/xlink" width="200" height="200"><path d="M536.256 744c0 30.8-24.296 56-54 56-29.7 0-53.996-25.2-53.996-56V92c0-30.8 24.296-56 53.996-56 29.7 0 54 25.2 54 56v652z" fill="#C3AF73" p-id="1915"></path><path d="M743.444 992.272a247.988 247.988 0 0 0 15.468-23.784c64.172-97.008 12.916-254.596-159.896-314.28l7.796-53.372c5.552-32.584-39.488-67.496-100.572-69.016a922.16 922.16 0 0 0-47.972 0c-61.084 1.52-106.128 36.42-100.576 69.02l7.796 53.368c-172.804 59.684-224.06 217.272-159.892 314.28a253.92 253.92 0 0 0 18.66 28.068" fill="#E76437" p-id="1916"></path></svg>