<?xml version="1.0" standalone="no"?><!DOCTYPE svg PUBLIC "-//W3C//DTD SVG 1.1//EN" "http://www.w3.org/Graphics/SVG/1.1/DTD/svg11.dtd"><svg t="1752214977946" class="icon" viewBox="0 0 1024 1024" version="1.1" xmlns="http://www.w3.org/2000/svg" p-id="1202" xmlns:xlink="http://www.w3.org/1999/xlink" width="200" height="200"><path d="M797.78 177.036m-133.332 0a133.332 133.332 0 1 0 266.664 0 133.332 133.332 0 1 0-266.664 0Z" fill="#FCEE21" p-id="1203"></path><path d="M797.78 177.036m-81.332 0a81.332 81.332 0 1 0 162.664 0 81.332 81.332 0 1 0-162.664 0Z" fill="#FB6E6E" p-id="1204"></path><path d="M610.008 349.676c-1.244 0-2.504-0.116-3.768-0.36a19.956 19.956 0 0 1-15.904-23.248c5.548-29.808 33.764-87.568 100.832-92.84 54.42-4.268 70.652-19.64 88.464-54.756a20 20 0 0 1 35.672 18.096c-22.968 45.284-49.056 70.896-121.008 76.54-52.96 4.16-64.208 58.092-64.66 60.384a20.068 20.068 0 0 1-19.628 16.184z" fill="#FBAE17" p-id="1205"></path><path d="M704.248 388.688l30.224-52.732-179.364-102.796-29.516 51.5c-147.74-34.604-306.68 29.584-386 167.976-96.772 168.852-38.336 384.184 130.516 480.948 168.852 96.772 384.184 38.344 480.96-130.516 78.464-136.892 54.884-304.332-46.82-414.38z" fill="#4D4B45" p-id="1206"></path></svg>