<?xml version="1.0" standalone="no"?><!DOCTYPE svg PUBLIC "-//W3C//DTD SVG 1.1//EN" "http://www.w3.org/Graphics/SVG/1.1/DTD/svg11.dtd"><svg t="1752214999410" class="icon" viewBox="0 0 1024 1024" version="1.1" xmlns="http://www.w3.org/2000/svg" p-id="2089" xmlns:xlink="http://www.w3.org/1999/xlink" width="200" height="200"><path d="M516 1002a20 20 0 0 1-20-20v-352a20 20 0 1 1 40 0v352a20 20 0 0 1-20 20zM351.392 954.004a20.004 20.004 0 0 1-18.872-26.628l106.72-304a20.012 20.012 0 0 1 25.496-12.248 20.008 20.008 0 0 1 12.248 25.496l-106.72 304a20.012 20.012 0 0 1-18.872 13.38zM680.42 954.004a20.012 20.012 0 0 1-18.868-13.38l-106.728-304a20 20 0 1 1 37.74-13.248l106.728 304a20 20 0 0 1-18.872 26.628z" fill="#383838" p-id="2090"></path><path d="M658.592 651.056c-5.024 21.42-27.124 38.944-49.124 38.944h-186.94c-22 0-46.208-16.9-53.792-37.548l-20.944-57.016c-7.584-20.656 4.208-37.548 26.208-37.548h266.42c22 0 35.9 17.524 30.88 38.94l-12.708 54.228z" fill="#383838" p-id="2091"></path><path d="M243.392 25.936h121.3v48.132H243.392z" fill="#C2C2C2" p-id="2092"></path><path d="M311.976 68.232H210.088c-24.068 0-43.756 19.688-43.756 43.756v434.636c0 24.072 19.688 43.756 43.756 43.756h603.828c24.072 0 43.752-19.692 43.752-43.756V111.988c0-24.068-19.688-43.756-43.752-43.756h-108.26" fill="#C2C2C2" p-id="2093"></path><path d="M764.744 165.352m-33.256 0a33.256 33.256 0 1 0 66.512 0 33.256 33.256 0 1 0-66.512 0Z" fill="#00BCFF" p-id="2094"></path><path d="M652.984 198.728l-248.236 283.716 108.372 107.936h300.792c24.072 0 43.752-19.692 43.752-43.756v-143.216l-204.68-204.68z" opacity=".05" p-id="2095"></path><path d="M515.996 329.308m-189.308 0a189.308 189.308 0 1 0 378.616 0 189.308 189.308 0 1 0-378.616 0Z" fill="#383838" p-id="2096"></path><path d="M515.996 329.308m-148.856 0a148.856 148.856 0 1 0 297.712 0 148.856 148.856 0 1 0-297.712 0Z" p-id="2097"></path><path d="M476.036 368.576l97.896 97.896a149.38 149.38 0 0 0 79.056-78.832l-98.008-98.004-78.944 78.94z" opacity=".1" p-id="2098"></path><path d="M515.996 325.308m-55.824 0a55.824 55.824 0 1 0 111.648 0 55.824 55.824 0 1 0-111.648 0Z" fill="#383838" p-id="2099"></path></svg>