<?xml version="1.0" standalone="no"?><!DOCTYPE svg PUBLIC "-//W3C//DTD SVG 1.1//EN" "http://www.w3.org/Graphics/SVG/1.1/DTD/svg11.dtd"><svg t="1752215376198" class="icon" viewBox="0 0 1107 1024" version="1.1" xmlns="http://www.w3.org/2000/svg" p-id="1114" xmlns:xlink="http://www.w3.org/1999/xlink" width="216.2109375" height="200"><path d="M1036.945963 797.52028c-6.464688 47.006868-52.161203 89.497991-99.068549 93.404173a4882.033951 4882.033951 0 0 1-768.597124 0c-46.911494-3.906181-92.603862-46.397305-99.06855-93.404173-23.155112-175.33031-23.155112-350.660619 0-525.995076C76.680575 224.530776 122.372943 182.035506 169.284437 178.129325a4881.930284 4881.930284 0 0 1 768.58883 0c46.911494 3.906181 92.612155 46.401451 99.076843 93.395879 23.150965 175.33031 23.155112 350.664766-0.004147 525.995076z" fill="#75D4C4" p-id="1115"></path><path d="M59.347415 695.424647a2029.48918 2029.48918 0 0 0 10.868472 102.09978c6.464688 47.002721 52.157056 89.497991 99.06855 93.404172a4882.033951 4882.033951 0 0 0 768.597123 0c46.907347-3.906181 92.608008-46.401451 99.072697-93.404172a2024.670727 2024.670727 0 0 0 10.868472-102.09978 11686.261501 11686.261501 0 0 1-988.475314 0z" fill="#5CA196" opacity=".48" p-id="1116"></path><path d="M371.095503 902.655436c14.919787-39.124012 30.992355-78.546585 47.85694-118.19308 8.59194-20.260723 34.015291-36.665025 56.212517-36.490864a9233.018012 9233.018012 0 0 0 138.90994 0.132694c22.197227-0.128547 49.167293 15.554231 59.641829 34.869508 21.853052 40.214591 42.789685 80.159648 62.357911 119.677595" fill="#5CA196" p-id="1117"></path><path d="M327.070105 357.345082c63.266036-1.409874 113.756123 50.232992 113.532202 114.494234-0.431256 64.273681-52.256576 116.219256-116.513672 115.721653-64.207334-0.592977-117.558637-51.804587-116.298043-114.079564 1.376701-62.266684 56.05909-114.647661 119.279513-116.136323z" fill="#FFFFFF" p-id="1118"></path><path d="M324.378904 609.360114c-76.083452-0.949592-140.207853-62.059349-138.632111-135.638201 1.77893-73.566412 67.491512-136.160684 142.173383-138.175975 74.744072-1.87845 134.829597 59.840871 134.721783 136.222884-0.443696 76.3986-62.117403 138.387456-138.263055 137.591292z m1.932357-230.220034c-51.398212 1.040819-95.46093 43.482182-96.481016 94.113257-0.966179 50.639368 42.014254 92.197486 94.063496 92.512634 52.078269 0.261241 94.262537-41.894 94.66062-93.839575 0.286122-51.945575-40.815861-93.785668-92.2431-92.786316z" fill="#559185" p-id="1119"></path><path d="M782.019956 357.382402c63.212129 1.505248 117.915252 53.873785 119.300246 116.119736 1.268887 62.254244-52.090709 113.453415-116.293896 114.050538-64.257095 0.501749-116.082415-51.435532-116.521965-115.705067-0.228068-64.257095 50.249579-115.887521 113.515615-114.465207z" fill="#FFFFFF" p-id="1120"></path><path d="M784.727744 609.343527c-76.145652 0.800311-137.811066-61.176105-138.267202-137.566412-0.116107-76.377867 59.944538-138.080601 134.692756-136.185564 74.677725 2.031878 140.415187 64.617857 142.20241 138.155242 1.592329 73.545678-62.548659 134.638849-138.627964 135.596734z m-1.948944-230.170273c-51.427239-1.007645-92.520928 40.820008-92.23066 92.757289 0.406376 51.941428 42.590644 94.088376 94.664767 93.827135 52.049242-0.319295 95.029675-41.864973 94.059349-92.487754-1.020086-50.614487-45.095244-93.043411-96.493456-94.09667z" fill="#559185" p-id="1121"></path><path d="M782.7788 379.173254a12757.546197 12757.546197 0 0 0-456.467539-0.033174c0.468576-14.529999 1.007645-29.064144 1.608915-43.594142a9830.348581 9830.348581 0 0 1 453.233122 0.041466c0.609563 14.534145 1.148633 29.059997 1.625502 43.58585z" fill="#559185" p-id="1122"></path><path d="M272.590903 786.830115c15.458857 0.568096 28.732409 13.667487 29.764935 29.321239 1.024232 15.649605-10.358429 27.828431-25.543605 27.106907-15.185176-0.717377-28.674355-13.932875-29.976416-29.433199-1.30206-15.504471 10.292082-27.558896 25.755086-26.994947z" fill="#5CA196" p-id="1123"></path><path d="M785.88467 790.71971c12.137359-0.369055 21.367889 9.25541 20.534405 21.533756-0.829338 12.28664-11.274848 22.645069-23.238046 23.097059-11.967345 0.447842-21.085914-9.24297-20.426591-21.608397 0.667617-12.357134 11.001166-22.645069 23.130232-23.022418z" fill="#5CA196" p-id="1124"></path></svg>