<?xml version="1.0" standalone="no"?><!DOCTYPE svg PUBLIC "-//W3C//DTD SVG 1.1//EN" "http://www.w3.org/Graphics/SVG/1.1/DTD/svg11.dtd"><svg t="1752215253989" class="icon" viewBox="0 0 1024 1024" version="1.1" xmlns="http://www.w3.org/2000/svg" p-id="2067" xmlns:xlink="http://www.w3.org/1999/xlink" width="200" height="200"><path d="M976.04122 879.989153c-69.701424-218.936407-290.837695-524.765288-439.226576-817.204068-5.250169-10.322441-15.57261-16.917695-26.797559-16.900339h-0.056407c-11.246644 0.030373-21.595119 6.695051-26.840949 17.06522C335.342644 355.644746 116.241356 660.831458 47.924068 880.067254c-2.212881 7.068203 1.440542 16.80922 9.411254 25.960136 7.975051 9.142237 19.048136 16.392678 29.296814 18.961356 283.574237 70.838237 567.148475 70.838237 850.72705 0 10.270373-2.573017 21.369492-9.849492 29.344543-19.009085 7.966373-9.17261 11.598102-18.926644 9.337491-25.990508z" fill="#FFEF5F" p-id="2068"></path><path d="M512 687.555254c-32.177898-0.099797-61.60922-23.165831-65.865763-55.725559l-23.013966-208.449085c-4.286915-32.412203 35.410441-64.282034 88.879729-64.242983 53.469288-0.039051 93.162305 31.83078 88.879729 64.242983l-23.013966 208.449085c-4.260881 32.559729-33.692203 55.625763-65.865763 55.725559z" p-id="2069"></path><path d="M517.727458 796.20339m-65.084746 0a65.084746 65.084746 0 1 0 130.169491 0 65.084746 65.084746 0 1 0-130.169491 0Z" p-id="2070"></path></svg>