<?xml version="1.0" standalone="no"?><!DOCTYPE svg PUBLIC "-//W3C//DTD SVG 1.1//EN" "http://www.w3.org/Graphics/SVG/1.1/DTD/svg11.dtd"><svg t="1752214982128" class="icon" viewBox="0 0 1024 1024" version="1.1" xmlns="http://www.w3.org/2000/svg" p-id="1375" xmlns:xlink="http://www.w3.org/1999/xlink" width="200" height="200"><path d="M890.056 885.86c0 42.988-31.404 78.16-69.792 78.16H218.292c-38.384 0-69.792-35.172-69.792-78.16V121.832c0-42.992 31.412-78.164 69.792-78.164h601.968c38.392 0 69.792 35.172 69.792 78.164v764.028h0.004z" fill="#546A78" p-id="1376"></path><path d="M814.584 399.628c0 21.496-17.584 39.08-39.084 39.08H263.896c-21.496 0-39.08-17.584-39.08-39.08V172.96c0-21.496 17.584-39.08 39.08-39.08h511.596c21.496 0 39.084 17.584 39.084 39.08v226.668h0.008z" fill="#7DC435" p-id="1377"></path><path d="M224.816 520.776h164.352v138.308H224.816zM437.26 520.776h164.344v138.308h-164.344z" fill="#CCCCCC" p-id="1378"></path><path d="M650.232 520.776h164.352v138.308h-164.352z" fill="#F16565" p-id="1379"></path><path d="M224.816 730.284h164.352v138.308H224.816zM437.26 730.284h164.344v138.308h-164.344zM650.232 730.284h164.352v138.308h-164.352z" fill="#CCCCCC" p-id="1380"></path></svg>