<?xml version="1.0" standalone="no"?><!DOCTYPE svg PUBLIC "-//W3C//DTD SVG 1.1//EN" "http://www.w3.org/Graphics/SVG/1.1/DTD/svg11.dtd"><svg t="1752215458124" class="icon" viewBox="0 0 1149 1024" version="1.1" xmlns="http://www.w3.org/2000/svg" p-id="1777" xmlns:xlink="http://www.w3.org/1999/xlink" width="224.4140625" height="200"><path d="M562.070588 971.123451a5975.953569 5975.953569 0 0 1-15.093961-411.507451c0.657569-0.135529-4.658196 49.568627-3.890196 49.382902 1.234824-16.439216 2.529882-32.89851 3.890196-49.382902 14.737569-8.533333 29.475137-17.15702 44.232785-25.916235 60.566588-35.97051 121.454431-74.260078 183.898353-118.472785 13.000784-35.187451 21.514039-74.711843 24.887215-117.047215 12.318118-152.244706-45.849098-254.112627-172.950588-290.680471-67.061961-29.209098-67.20251 65.766902-66.81098 66.103216a5980.405961 5980.405961 0 0 0-13.372236 247.998745c-0.913569 26.302745-22.136471 48.655059-47.435294 49.317647a3405.628235 3405.628235 0 0 1-193.375372 0c-25.298824-0.662588-46.511686-23.014902-47.430275-49.317647a5971.245176 5971.245176 0 0 0-13.372235-248.003765C238.72251-11.745882 180.118588 7.077647 180.525176 6.826667 52.008157 43.018039-6.912 145.031529 5.486431 298.164706c13.703529 177.197176 111.912157 283.648 260.22651 312.741647-1.807059 119.823059-7.127843 239.656157-15.962353 359.484235 0.150588 0.431686-9.617569 58.408157 62.08251 52.374588a1290.942745 1290.942745 0 0 1 188.355765 0.476863c0.090353-0.512 66.504784 1.872314 61.881725-52.123608z" fill="#F5A623" p-id="1778"></path><path d="M839.368784 715.555137c-11.610353 20.118588-2.30902 25.710431 20.680785 12.443608l60.28549-34.805961c22.989804-13.271843 22.804078-24.129255-0.431686-24.129255-23.220706 0-23.42149 10.857412-0.431687 24.129255l60.28549 34.805961c22.989804 13.266824 32.286118 7.67498 20.685804-12.448627-11.615373-20.108549-21.12251-14.848-21.122509 11.695686v69.621961c0 26.543686 9.507137 31.804235 21.122509 11.690666 11.605333-20.118588 2.30902-25.715451-20.685804-12.448627l-60.28549 34.800941c-22.989804 13.271843-22.78902 24.134275 0.431687 24.129255 23.235765 0 23.42651-10.862431 0.436705-24.134275l-60.290509-34.800941c-22.989804-13.266824-32.291137-7.669961-20.680785 12.448628 11.615373 20.118588 21.11749 14.858039 21.117491-11.690667v-69.616941c0-26.553725-9.497098-31.804235-21.117491-11.695686z m-126.694902 190.534275c11.615373 6.711216 39.93098 23.04502 62.920785 36.326902l60.28549 34.795921c22.989804 13.271843 51.300392 29.630745 62.920784 36.321883 11.605333 6.701176 30.614588 6.701176 42.214902 0 11.620392-6.701176 39.936-23.050039 62.925804-36.321883l60.275451-34.795921c22.989804-13.276863 51.300392-29.625725 62.920784-36.321883 11.610353-6.711216 21.112471-23.16549 21.112471-36.572862v-142.265726-72.648784c0-13.417412-9.502118-29.866667-21.112471-36.572863-11.620392-6.701176-39.925961-23.04-62.920784-36.321882l-60.28549-34.800941c-22.989804-13.271843-51.300392-29.630745-62.910745-36.321883-11.615373-6.701176-30.624627-6.701176-42.234981 0l-62.915764 36.321883-60.285491 34.800941-62.910745 36.321882c-11.615373 6.711216-21.12251 23.175529-21.122509 36.572863v214.91451c0 13.422431 9.502118 29.856627 21.122509 36.567843z" fill="#F7DDBD" p-id="1779"></path></svg>