<?xml version="1.0" standalone="no"?><!DOCTYPE svg PUBLIC "-//W3C//DTD SVG 1.1//EN" "http://www.w3.org/Graphics/SVG/1.1/DTD/svg11.dtd"><svg t="1752215635448" class="icon" viewBox="0 0 1121 1024" version="1.1" xmlns="http://www.w3.org/2000/svg" p-id="1239" xmlns:xlink="http://www.w3.org/1999/xlink" width="218.9453125" height="200"><path d="M900.686122 908.713512c0 63.412206-51.883557 115.286488-115.291125 115.286488H207.283807c-63.412206 0-115.291125-51.883557-115.291125-115.286488V117.702589C91.992682 54.290383 143.871601 2.411463 207.283807 2.411463h578.106552c63.412206 0 115.291125 51.87892 115.291126 115.291126v791.010923h0.004637z" fill="#EDEDED" p-id="1240"></path><path d="M550.592685 184.527942H438.232415a18.549717 18.549717 0 0 1 0-37.099433h112.36027a18.549717 18.549717 0 0 1 0 37.099433z" fill="#6E6E96" p-id="1241"></path><path d="M758.715867 287.71074H247.680452a18.549717 18.549717 0 0 1 0-37.099433h511.035415a18.549717 18.549717 0 0 1 0 37.099433zM659.600094 357.926055H247.680452a18.549717 18.549717 0 0 1 0-37.099433h411.919642a18.549717 18.549717 0 0 1 0 37.099433zM700.905675 440.523305H247.680452a18.549717 18.549717 0 0 1 0-37.099433h453.220586a18.549717 18.549717 0 0 1 0.004637 37.099433zM453.100013 518.993243H247.680452a18.549717 18.549717 0 0 1 0-37.099433h205.419561a18.549717 18.549717 0 0 1 0 37.099433z" fill="#6E6E96" opacity=".3" p-id="1242"></path><path d="M963.78762 572.597286c-59.859935 0-111.780592 33.87642-137.717732 83.473725H372.510769l-66.871728 55.649149 66.871728 64.924008h81.15501l11.593573 27.824575h162.310019l13.912288-27.824575h55.649149l41.736862 41.736862h98.63348c28.190932 39.306849 74.235965 64.924008 126.281833 64.924008 85.801714 0 155.353876-69.552162 155.353876-155.353876s-69.547525-155.353876-155.349239-155.353876z m55.64915 204.046882c-26.901726 0-48.693006-21.800554-48.693006-48.693006s21.791279-48.693006 48.693006-48.693006c26.892451 0 48.693006 21.800554 48.693006 48.693006s-21.809829 48.693006-48.693006 48.693006z" fill="#FFD045" p-id="1243"></path></svg>