<?xml version="1.0" standalone="no"?><!DOCTYPE svg PUBLIC "-//W3C//DTD SVG 1.1//EN" "http://www.w3.org/Graphics/SVG/1.1/DTD/svg11.dtd"><svg t="1752215234566" class="icon" viewBox="0 0 1024 1024" version="1.1" xmlns="http://www.w3.org/2000/svg" p-id="1376" xmlns:xlink="http://www.w3.org/1999/xlink" width="200" height="200"><path d="M531.297821 44.210992C323.60065 16.388163 98.745236 224.114472 67.438309 513.764943 35.835837 804.214634 260.861919 1015.100358 531.297821 979.789008c271.297561-35.149008 443.07148-243.00852 412.36813-469.553951-32.206049-227.352976-203.813463-438.36774-412.36813-466.024065z" fill="#FF7387" p-id="1377"></path><path d="M528.650407 573.106992c-33.188423-0.079089-61.598179-19.897236-63.587903-48.598374l-11.784325-200.321041c-2.014699-28.572098 31.64826-56.299187 75.372228-56.249236 43.72813-0.049951 77.386927 27.677138 75.368065 56.249236l-11.780163 200.321041c-1.989724 28.696976-30.395317 48.519285-63.587902 48.598374zM528.650407 762.780098c-30.120585 0-54.538407-23.389659-54.538407-52.248976v-36.443577c0-28.850992 24.417821-52.244813 54.538407-52.244813 30.120585 0 54.538407 23.393821 54.538406 52.244813v36.443577c0 28.859317-24.417821 52.248976-54.538406 52.248976z" fill="#FFE43F" p-id="1378"></path></svg>