<?xml version="1.0" standalone="no"?><!DOCTYPE svg PUBLIC "-//W3C//DTD SVG 1.1//EN" "http://www.w3.org/Graphics/SVG/1.1/DTD/svg11.dtd"><svg t="1752215187800" class="icon" viewBox="0 0 1024 1024" version="1.1" xmlns="http://www.w3.org/2000/svg" p-id="2052" xmlns:xlink="http://www.w3.org/1999/xlink" width="200" height="200"><path d="M829.174 267.56c-0.192-0.092-0.392-0.18-0.588-0.268-29.108-13.716-127.704-55.112-233.212 2.612a1932.768 1932.768 0 0 1-46.604 21.74c-92.092 117.04-163.968 228.02-256.544 368.904-9.024 13.76-13.308 30.588-11.912 46.792 1.388 16.164 8.316 29.64 19.812 37.676 97.912 68.348 204.916 116.164 334.168 177.968 15.196 7.248 32.748 9.5 48.648 6.316 15.972-3.18 28.344-11.496 34.94-23.708 53.72-99.22 98.584-199.768 154.16-314.58l0.544-1.136c2.86-5.588 25.8-59.876 34.64-127.964 7.592-68.44 9.484-156.348-78.052-194.352zM316.502 720.748s-0.004 0 0 0z" fill="#B1CAC0" p-id="2053"></path><path d="M493.922 437.752c93.536-12.408 147.104-99.048 128.708-187.392a178.472 178.472 0 0 0-189.992-141.368c-73.828 6.476-132.168 58.636-142.648 129.016a3206.72 3206.72 0 0 1-183.34 4.128A191856.972 191856.972 0 0 0 35.822 322.504a3637.32 3637.32 0 0 0 79.908 68.704l44.28-53.272a3560.424 3560.424 0 0 0 59.32 50.744c14.368-18.072 28.74-36.14 43.116-54.208 14.24-0.708 28.436-1.504 42.596-2.396 33.004 69.564 111.692 115.952 188.88 105.676z" fill="#FFC81F" p-id="2054"></path><path d="M522.302 218.18c30.7 22.924 38.92 65.072 17.804 94.92-21.104 29.832-64.784 35.2-96.968 11.168-32.2-24.016-39.5-67.424-16.908-96.148 22.604-28.736 65.356-32.844 96.072-9.94z" fill="#FFFFFF" p-id="2055"></path><path d="M428.694 343.62c-44.248-32.996-53.992-92.684-22.844-131.528 31.168-38.884 89.408-44.192 130.896-13.268 41.456 30.968 52.924 88.3 24.524 129.244-28.384 40.912-88.352 48.58-132.576 15.552z m79.168-106.088c-19.652-14.656-46.968-11.9-61.128 6.456-14.16 18.344-9.404 45.828 10.84 60.928 20.236 15.108 47.928 11.84 61.488-6.952 13.568-18.8 8.436-45.768-11.2-60.432z" fill="#E8BA2A" p-id="2056"></path><path d="M564.242 394.584c-63.644-43.468-92.004-111.652-93.264-114.988-5.296-13.056 1.048-27.02 13.972-31.284 12.908-4.26 27.48 2.652 32.784 15.52 0.188 1.148 36.28 84.248 109.468 108.92 41.772 14.12 87.896 6.06 135.704-23.876 11.412-7.108 26.796-3.692 34.576 7.648 7.772 11.348 5.064 26.476-6.264 33.752-59.988 38.556-120.656 48.484-178.048 28.992-18.024-6.108-34.364-14.724-48.928-24.684z" fill="#757575" p-id="2057"></path></svg>