<?xml version="1.0" standalone="no"?><!DOCTYPE svg PUBLIC "-//W3C//DTD SVG 1.1//EN" "http://www.w3.org/Graphics/SVG/1.1/DTD/svg11.dtd"><svg t="1752215293102" class="icon" viewBox="0 0 1089 1024" version="1.1" xmlns="http://www.w3.org/2000/svg" p-id="1845" xmlns:xlink="http://www.w3.org/1999/xlink" width="212.6953125" height="200"><path d="M407.989607 988.803282c-13.508923-2.310564-22.641778-15.613812-20.515009-29.822906 2.135521-14.209094 15.044923-24.282803 28.943317-22.274188 15.736342 2.31494 28.133744 0.039385 36.925264-7.049846 14.340376-11.522188 17.184821-33.345641 17.176069-33.564445 0.043761-0.41135 0.096274-0.827077 0.161914-1.247179a2444.559316 2444.559316 0 0 0-21.858461-840.340786c-2.931966-14.43665 9.531077-29.442188 28.01559-33.240616 18.488889-3.802803 35.927521 5.478838 38.623179 20.453744a2504.353915 2504.353915 0 0 1 6.393436 860.855795c-0.822701 7.159248-8.008205 46.08-38.601299 69.868307-20.738188 16.204581-45.913709 21.333333-75.264 16.36212z" fill="#908988" p-id="1846"></path><path d="M479.048205 32.264752c10.843897-2.17053 21.009504 3.225162 22.633026 11.964171a2492.087795 2492.087795 0 0 1 9.62735 856.589128c-0.542632 5.014974-6.581607 41.143795-34.085196 62.682804-18.230701 14.331624-40.793709 18.939624-67.400206 14.550427-7.990701-1.325949-13.373265-9.150359-12.077948-17.543658 1.299692-8.380171 8.896547-14.257231 17.027282-13.036308 18.602667 2.818188 33.665094-0.105026 44.894085-9.102222 18.200068-14.524171 21.504-40.885607 21.468992-41.130667 0.030632-0.280068 0.065641-0.551385 0.109401-0.822701a2456.94359 2456.94359 0 0 0-18.690188-844.67747c-1.702291-8.550838 5.649504-17.311726 16.493402-19.473504m-4.467966-21.998496c-26.190769 5.526974-43.690667 26.820923-39.480889 47.055864a2432.02188 2432.02188 0 0 1 24.996103 836.004102c-0.074393 0.525128-0.140034 1.054632-0.201299 1.592889-0.599521 4.879316-4.170393 18.970256-12.957539 26.081368-6.367179 5.163761-16.086427 6.765402-28.930188 4.949333-19.749197-2.752547-37.90988 11.557197-40.815589 31.529573-2.896957 19.994256 9.933675 38.706325 28.912683 42.058393 32.072205 5.592615 59.847111-0.048137 83.075282-18.081915 33.595077-25.928205 42.080274-68.157265 43.261812-77.403897a2516.567521 2516.567521 0 0 0-3.190153-864.781128c-3.745915-21.324581-28.488205-34.540308-54.670223-29.004582z" fill="#918D8D" p-id="1847"></path><path d="M967.855043 542.86441C941.217915 266.808889 763.453265 23.490735 484.680205 79.281231 343.915214 105.542017 235.349333 180.447179 164.286359 263.566222 93.599726 348.081231 60.416 440.81012 79.066803 534.899966c294.579419-38.465641 594.484513-53.930667 888.78824 7.964444z" fill="#72C98B" p-id="1848"></path><path d="M501.182359 80.414632c0.538256 0.083145 54.849641-8.905299 116.722872 41.948992 60.197197 50.355419 127.947487 160.557949 116.595966 387.426461 81.495521 6.870427 162.798496 18.510769 243.501948 36.032547-1.794188-0.494496 17.596171-125.383111-40.671179-256.980239-56.521299-130.717538-191.619282-252.989265-436.149607-208.427761z" fill="#FF8C8C" p-id="1849"></path><path d="M734.050462 509.037402c18.646427-257.606017-116.399043-458.50694-246.403283-430.290052-130.796308 27.77053-186.744342 221.324034-169.240068 431.112753 138.336274-10.305641 277.241436-12.428034 415.643351-0.822701z" fill="#FFDD61" p-id="1850"></path></svg>