<?xml version="1.0" standalone="no"?><!DOCTYPE svg PUBLIC "-//W3C//DTD SVG 1.1//EN" "http://www.w3.org/Graphics/SVG/1.1/DTD/svg11.dtd"><svg t="1752215042080" class="icon" viewBox="0 0 1024 1024" version="1.1" xmlns="http://www.w3.org/2000/svg" p-id="2540" xmlns:xlink="http://www.w3.org/1999/xlink" width="200" height="200"><path d="M839.793778 107.605333a28.444444 28.444444 0 1 1 55.523555 12.344889c-10.979556 49.408-33.863111 86.599111-68.878222 109.937778a28.444444 28.444444 0 1 1-31.544889-47.331556c21.873778-14.592 36.906667-39.025778 44.899556-74.951111z" fill="#191919" p-id="2541"></path><path d="M820.48 201.6c49.009778 49.009778 54.769778 124.871111 17.294222 180.209778l0.227556-0.355556a1340.373333 1340.373333 0 0 1-32.355556 46.648889c-4.266667 5.788444-4.181333 19.626667-11.662222 34.545778-7.480889 14.904889-27.790222 18.645333-31.687111 23.779555a1966.193778 1966.193778 0 0 1-101.12 122.837334l-10.609778 11.904c-5.333333 5.944889-10.695111 11.889778-16.128 17.891555-60.529778 66.901333-129.877333 132.579556-208.042667 197.006223-59.719111 49.379556-145.152 51.911111-207.502222 7.594666-5.091556 15.232-14.933333 31.388444-23.552 51.342222-12.714667-14.819556-20.124444-41.287111-22.243555-79.416888-31.758222-4.224-52.949333-19.057778-63.530667-44.472889 10.652444 1.180444 21.617778 0.568889 32.469333 0l6.485334-0.327111c3.953778-0.170667 7.893333-0.284444 11.761777-0.256-26.040889-62.008889-13.809778-136.277333 36.693334-186.780445a171.235556 171.235556 0 0 1 29.838222-23.850667l3.043556-1.863111a849.621333 849.621333 0 0 0 72.490666-50.375111c6.769778-5.304889 13.041778-20.807111 20.266667-26.652444 7.253333-5.845333 22.414222-4.494222 26.368-7.793778 16-13.283556 31.772444-28.302222 49.308444-43.918222 4.551111-4.067556 2.289778-15.473778 13.596445-26.780445 11.306667-11.306667 26.723556-10.012444 32.184889-15.246222 18.488889-17.678222 47.928889-48.099556 88.334222-91.306667 4.081778-4.352 0.440889-14.08 4.750222-18.716444 5.646222-6.072889 19.342222-7.111111 25.372445-13.653333 9.528889-10.268444 24.888889-26.936889 46.08-49.991111 3.313778-4.138667 6.897778-8.149333 10.737777-12.003556 55.537778-55.537778 145.592889-55.537778 201.130667 0z" fill="#247500" p-id="2542"></path><path d="M188.444444 547.555556a186.168889 186.168889 0 0 1 54.542223-38.044445c70.656-52.352 122.737778-91.050667 156.245333-116.096l5.560889-4.167111a3228.629333 3228.629333 0 0 0 35.612444-26.894222l1.536-1.194667a47.36 47.36 0 0 0 2.503111-2.048l0.668445-0.654222 1.564444-1.564445c15.715556-16.071111 68.295111-76.956444 157.767111-182.670222l6.172445 4.636445c1.464889-1.564444 2.958222-3.100444 4.494222-4.636445 55.537778-55.537778 135.608889-70.826667 191.146667-15.288889 49.009778 49.009778 54.769778 124.871111 17.294222 180.209778l0.227556-0.355555a1340.373333 1340.373333 0 0 1-32.355556 46.648888c-4.266667 5.788444-4.181333 19.626667-11.662222 34.545778-7.480889 14.904889-27.790222 18.645333-31.687111 23.779556-48.597333 64.014222-86.186667 106.581333-127.857778 152.632889-60.529778 66.901333-129.877333 132.579556-208.042667 197.006222-67.086222 55.466667-166.627556 51.84-229.418666-10.951111-66.659556-66.659556-60.956444-168.248889 5.688888-234.894222z" fill="#68AE19" p-id="2543"></path><path d="M589.184 171.434667l-4.835556 5.006222c-1.564444 1.706667-3.128889 3.413333-4.636444 5.176889l-3.072 3.697778-41.628444 45.226666-5.717334 2.190222c-2.062222 0.853333-3.825778 1.635556-5.888 2.659556-6.471111 3.214222-12.231111 7.139556-17.479111 12.771556a50.104889 50.104889 0 0 0-12.487111 24.462222l-0.483556 2.503111-0.085333 0.625778-24.803555 26.254222a2523.633778 2523.633778 0 0 1-37.831112 39.025778l-10.168888 10.083555-3.143112 0.924445c-4.124444 1.251556-7.893333 2.602667-11.776 4.337777a76.885333 76.885333 0 0 0-23.424 15.957334l-1.066666 1.080889c-6.997333 7.253333-12.088889 15.217778-15.715556 23.822222l-1.237333 3.128889-1.095111 3.100444-0.284445 0.810667-22.4 20.209778c-3.598222 3.228444-6.926222 6.200889-9.585777 8.533333l-1.393778 1.208889-2.232889 0.398222c-11.818667 2.133333-21.304889 5.447111-30.890667 13.184-7.338667 5.916444-11.178667 10.808889-17.393778 20.48l-4.238222 6.684445-0.682666 1.024 2.56-1.962667a807.352889 807.352889 0 0 1-68.835556 47.829333l-2.730667 1.664a214.812444 214.812444 0 0 0-37.688889 30.051556l-3.598222 3.669333A213.191111 213.191111 0 0 0 105.258667 724.622222l0.426666 3.982222-0.853333 0.071112c-27.363556 2.929778-45.895111 31.857778-34.645333 58.851555l1.720889 3.953778c11.875556 25.912889 31.416889 44.714667 56.931555 55.893333l4.792889 1.976889 0.412444 2.673778c4.835556 29.895111 14.023111 53.390222 28.899556 70.755555 20.536889 23.950222 59.064889 18.104889 71.566222-10.851555l2.218667-4.977778 1.991111-4.280889 4.437333 1.720889c70.030222 26.055111 150.670222 13.966222 210.417778-35.441778 74.993778-61.809778 142.165333-124.871111 201.472-189.184l11.022222-12.088889c6.030222-6.656 11.278222-12.458667 16.256-18.019555l10.695111-11.975111 8.533334-9.671111a1966.933333 1966.933333 0 0 0 86.698666-105.272889l3.128889-4.124445 1.848889-0.881777c2.830222-1.408 4.636444-2.375111 7.210667-3.84 13.610667-7.822222 24.405333-17.621333 31.687111-32.113778 3.427556-6.855111 5.973333-13.681778 8.092444-21.020445l0.711112-2.545777 1.934222-7.822223 0.312889-1.365333 0.867555-1.180444c5.546667-7.68 12.046222-17.009778 19.555556-28.046223l9.500444-14.051555a184.931556 184.931556 0 0 0-22.442666-234.311111c-72.206222-72.206222-189.269333-72.206222-261.475556 0z m231.296 30.165333c47.971556 47.971556 54.513778 121.671111 19.626667 176.64l-2.104889 3.214222a1340.373333 1340.373333 0 0 1-32.355556 46.648889c-4.266667 5.788444-4.181333 19.626667-11.662222 34.545778-7.480889 14.904889-27.790222 18.645333-31.687111 23.779555a1966.193778 1966.193778 0 0 1-101.12 122.837334l-10.609778 11.904c-5.333333 5.944889-10.695111 11.889778-16.128 17.891555-60.529778 66.901333-129.877333 132.579556-208.042667 197.006223-59.719111 49.379556-145.152 51.911111-207.502222 7.594666-5.091556 15.232-14.933333 31.388444-23.552 51.342222-12.714667-14.819556-20.124444-41.287111-22.243555-79.416888-31.758222-4.224-52.949333-19.057778-63.530667-44.472889 8.519111 0.938667 17.251556 0.739556 25.955556 0.327111l12.999111-0.654222c3.953778-0.170667 7.893333-0.284444 11.761777-0.256-26.040889-62.008889-13.809778-136.277333 36.693334-186.780445a171.235556 171.235556 0 0 1 29.838222-23.850667l3.043556-1.863111a849.621333 849.621333 0 0 0 72.490666-50.375111c6.769778-5.304889 13.041778-20.807111 20.266667-26.652444 7.253333-5.845333 22.414222-4.494222 26.368-7.793778 16-13.283556 31.772444-28.302222 49.308444-43.918222 4.551111-4.067556 2.289778-15.473778 13.596445-26.780445 11.306667-11.306667 26.723556-10.012444 32.184889-15.246222l7.125333-6.912c18.574222-18.247111 45.653333-46.364444 81.208889-84.394667 4.081778-4.352 0.440889-14.08 4.750222-18.716444 5.646222-6.072889 19.342222-7.111111 25.372445-13.653333l46.08-49.991111c3.313778-4.138667 6.897778-8.149333 10.737777-12.003556 55.537778-55.537778 145.592889-55.537778 201.130667 0z" fill="#191919" p-id="2544"></path><path d="M438.670222 704.199111a14.222222 14.222222 0 0 1 9.927111-17.493333c11.292444-3.128889 20.992-10.083556 29.383111-21.333334a14.222222 14.222222 0 1 1 22.812445 16.995556c-12.046222 16.156444-27.008 26.88-44.615111 31.758222a14.222222 14.222222 0 0 1-17.493334-9.927111z m-113.536 85.447111a14.222222 14.222222 0 0 1 11.946667-16.170666c12.458667-1.877333 21.248-6.357333 27.022222-13.312a14.222222 14.222222 0 0 1 21.859556 18.204444c-10.538667 12.657778-25.656889 20.366222-44.657778 23.224889a14.222222 14.222222 0 0 1-16.170667-11.946667z m-87.253333-67.911111a14.222222 14.222222 0 0 1 16.568889-11.406222c12.387556 2.275556 22.144 0.910222 29.895111-3.783111a14.222222 14.222222 0 0 1 14.734222 24.32c-14.108444 8.547556-30.904889 10.908444-49.777778 7.438222a14.222222 14.222222 0 0 1-11.420444-16.568889z m122.026667-33.365333a14.222222 14.222222 0 0 1 7.068444-18.844445c15.587556-7.082667 27.733333-14.976 36.465778-23.552a14.222222 14.222222 0 0 1 19.925333 20.295111c-11.292444 11.093333-26.168889 20.764444-44.629333 29.155556a14.222222 14.222222 0 0 1-18.830222-7.054222z m270.947555-145.393778a14.222222 14.222222 0 0 1 0.056889-20.124444c7.480889-7.452444 14.848-17.208889 22.001778-29.297778a14.222222 14.222222 0 0 1 24.462222 14.506666c-8.305778 14.037333-17.095111 25.685333-26.396444 34.958223a14.222222 14.222222 0 0 1-20.124445-0.042667z m-100.892444 69.902222a14.222222 14.222222 0 0 1 1.109333-20.081778c7.864889-7.054222 15.729778-16.412444 23.509333-28.103111a14.222222 14.222222 0 1 1 23.68 15.772445c-9.045333 13.568-18.432 24.746667-28.202666 33.521778a14.222222 14.222222 0 0 1-20.096-1.109334z" fill="#3B8C11" p-id="2545"></path><path d="M597.333333 341.333333c-17.777778 28.444444-92.444444 99.555556-113.777777 113.777778m163.555555-181.333333c-4.736 7.111111-10.666667 15.402667-17.777778 24.888889" fill="#D8D8D8" p-id="2546"></path><path d="M609.393778 334.648889a14.222222 14.222222 0 0 0-24.120889-15.075556c-14.904889 23.850667-86.456889 94.051556-109.610667 109.482667a14.222222 14.222222 0 1 0 15.786667 23.665778c26.339556-17.564444 100.764444-90.595556 117.944889-118.072889z m49.550222-67.2a14.222222 14.222222 0 0 0-23.665778-15.786667l-4.224 6.186667c-3.754667 5.404444-8.120889 11.434667-13.098666 18.062222a14.222222 14.222222 0 1 0 22.755555 17.066667c7.253333-9.671111 13.340444-18.176 18.232889-25.528889z" fill="#FFFFFF" p-id="2547"></path><path d="M211.228444 793.358222c-25.415111-34.944-65.450667-18.247111-101.660444-22.243555 10.581333 25.415111 31.772444 40.248889 63.530667 44.472889 2.133333 38.115556 9.528889 64.597333 22.243555 79.416888C213.333333 853.333333 236.643556 828.302222 211.228444 793.358222z" fill="#FFDC4A" p-id="2548"></path><path d="M147.285333 742.371556l-16.014222 0.782222c-7.893333 0.312889-13.582222 0.241778-18.588444-0.312889-21.518222-2.375111-37.688889 19.228444-29.368889 39.210667l1.621333 3.726222c11.832889 25.656889 32.184889 43.278222 59.420445 52.337778l2.204444 0.696888c3.953778 32.924444 12.600889 57.685333 27.178667 74.709334a28.444444 28.444444 0 0 0 47.715555-7.239111c1.479111-3.427556 3.100444-6.954667 4.949334-10.808889l9.813333-20.053334c1.792-3.697778 3.356444-6.968889 4.195555-8.874666 5.489778-12.316444 8.789333-22.755556 9.998223-33.720889 2.133333-19.640889-3.128889-38.243556-16.184889-56.206222-21.091556-29.013333-46.478222-36.010667-86.940445-34.247111z m-11.761777 29.070222l12.999111-0.654222 5.902222-0.199112c21.504-0.512 41.728 2.033778 56.803555 22.755556C236.643556 828.302222 213.333333 853.333333 195.342222 895.004444c-12.714667-14.819556-20.124444-41.287111-22.243555-79.416888-31.758222-4.224-52.949333-19.057778-63.530667-44.472889 8.519111 0.938667 17.251556 0.739556 25.955556 0.327111z" fill="#191919" p-id="2549"></path></svg>